<?xml version="1.0" standalone="no"?>
<!DOCTYPE svg PUBLIC "-//W3C//DTD SVG 20010904//EN"
 "http://www.w3.org/TR/2001/REC-SVG-20010904/DTD/svg10.dtd">
<svg version="1.0" xmlns="http://www.w3.org/2000/svg"
 width="1024.000000pt" height="1024.000000pt" viewBox="0 0 1024.000000 1024.000000"
 preserveAspectRatio="xMidYMid meet">

<g transform="translate(0.000000,1024.000000) scale(0.100000,-0.100000)"
fill="#000000" stroke="none">
<path d="M6563 8611 c-93 -32 -153 -92 -179 -178 -15 -49 -17 -131 -5 -173 8
-28 -49 -89 -781 -833 l-333 -339 -1090 1 c-620 0 -1107 -3 -1129 -9 -49 -11
-85 -37 -110 -79 -25 -44 -25 -189 1 -234 23 -39 62 -67 104 -76 32 -6 34 -9
37 -51 6 -121 36 -380 57 -506 105 -620 330 -1044 717 -1351 41 -32 83 -65 96
-73 l22 -15 -21 -135 c-23 -152 -21 -205 9 -248 47 -66 -22 -62 1166 -62 1163
0 1114 -2 1165 53 33 36 37 94 16 254 -16 126 -17 136 -1 145 47 26 176 140
274 243 180 187 316 413 407 675 78 225 148 581 175 885 6 72 13 141 14 155 2
18 10 26 33 31 47 9 89 45 107 89 18 46 21 137 6 192 -13 44 -66 94 -117 107
-24 6 -209 10 -486 8 -246 -1 -447 0 -447 3 0 3 76 122 169 265 94 143 209
322 257 397 l88 136 46 7 c72 10 163 59 214 116 171 191 31 531 -249 604 -78
20 -168 19 -232 -4z m-1114 -1846 c289 -60 532 -187 737 -387 200 -194 329
-417 401 -690 24 -92 27 -121 28 -268 0 -162 -1 -166 -28 -223 -34 -68 -169
-214 -266 -287 -89 -68 -230 -135 -348 -168 l-98 -27 -755 0 c-750 0 -755 0
-833 22 -213 61 -400 182 -547 355 -35 40 -74 98 -89 128 -24 52 -26 64 -26
200 1 159 14 239 67 390 190 540 656 904 1255 980 121 16 364 3 502 -25z"/>
<path d="M5070 6530 c-18 -18 -20 -33 -20 -150 0 -117 2 -132 20 -150 26 -26
81 -26 103 -2 14 15 17 42 17 154 0 118 -2 137 -18 151 -25 23 -78 21 -102 -3z"/>
<path d="M4490 6377 c-13 -7 -29 -25 -35 -41 -8 -24 -3 -40 40 -123 28 -51 58
-103 68 -114 28 -30 84 -22 111 14 l21 28 -55 107 c-75 145 -91 159 -150 129z"/>
<path d="M5688 6378 c-9 -7 -42 -62 -73 -121 -53 -99 -56 -110 -45 -136 15
-37 62 -58 94 -43 26 11 136 209 136 243 0 27 -44 69 -73 69 -13 0 -30 -6 -39
-12z"/>
<path d="M6011 6054 c-84 -57 -231 -205 -231 -232 0 -13 25 -67 55 -120 63
-109 98 -212 120 -342 7 -49 19 -99 25 -110 21 -39 69 -50 216 -50 150 0 192
11 213 56 55 121 -108 649 -245 791 -52 55 -80 56 -153 7z"/>
<path d="M4030 5930 c-23 -23 -27 -82 -7 -98 30 -25 202 -112 221 -112 53 0
90 62 63 104 -17 25 -205 126 -236 126 -11 0 -30 -9 -41 -20z"/>
<path d="M5564 5877 c-16 -9 -360 -319 -374 -338 -3 -4 -35 -7 -72 -7 -97 -1
-175 -48 -219 -134 -48 -93 -10 -239 77 -299 176 -121 403 17 381 230 l-6 57
144 217 c80 119 145 225 145 236 0 33 -44 55 -76 38z"/>
<path d="M3866 5318 c-22 -31 -20 -74 4 -98 18 -18 33 -20 149 -20 129 0 130
0 151 27 16 20 20 36 16 58 -10 50 -27 55 -172 55 -126 0 -134 -1 -148 -22z"/>
<path d="M6880 2940 l0 -540 98 0 97 0 0 540 0 540 -97 0 -98 0 0 -540z"/>
<path d="M1229 3442 c-135 -45 -248 -142 -308 -264 -113 -230 -58 -535 122
-679 117 -93 214 -123 373 -117 109 4 116 6 198 46 66 33 98 57 145 109 34 36
61 69 61 72 0 3 -38 28 -84 54 l-85 49 -36 -41 c-20 -22 -62 -53 -93 -68 -47
-23 -70 -28 -132 -27 -86 0 -143 21 -204 74 -106 94 -135 304 -61 450 87 173
333 214 470 80 l41 -40 82 56 82 57 -37 41 c-53 60 -125 112 -191 137 -80 32
-262 37 -343 11z"/>
<path d="M5400 3441 c-84 -27 -138 -58 -196 -113 -68 -64 -109 -128 -142 -220
-35 -101 -38 -268 -4 -374 76 -247 330 -396 591 -350 118 21 182 55 270 144
l74 75 -23 19 c-13 10 -52 35 -87 55 l-64 35 -35 -40 c-104 -122 -315 -131
-432 -19 -125 119 -131 375 -12 511 47 53 121 88 201 94 87 6 154 -16 217 -73
l48 -43 77 54 c88 63 88 62 10 135 -63 59 -124 94 -198 113 -80 22 -225 20
-295 -3z"/>
<path d="M4560 3258 l0 -98 -65 0 -65 0 0 -85 0 -85 65 0 65 0 0 -214 c0 -225
5 -257 48 -315 47 -64 172 -95 286 -71 l59 12 -7 60 c-3 34 -6 72 -6 85 0 23
-2 23 -50 17 -60 -8 -103 7 -119 42 -7 16 -11 92 -11 204 l0 180 90 0 90 0 0
85 0 85 -90 0 -90 0 0 98 0 97 -100 0 -100 0 0 -97z"/>
<path d="M2145 3150 c-283 -95 -358 -473 -133 -676 120 -108 326 -124 475 -38
133 78 211 253 183 411 -23 134 -95 228 -219 286 -87 41 -213 48 -306 17z
m203 -165 c82 -35 122 -102 122 -205 0 -134 -78 -223 -195 -224 -91 0 -166 66
-187 166 -37 177 109 325 260 263z"/>
<path d="M3965 3158 c-38 -14 -85 -45 -107 -72 l-18 -21 0 25 c-1 68 -4 70
-106 70 l-94 0 0 -380 0 -380 100 0 100 0 0 233 c0 273 7 300 81 338 80 40
173 13 211 -62 16 -30 18 -65 18 -271 l0 -238 101 0 100 0 -3 293 c-3 262 -5
296 -22 327 -30 58 -87 109 -143 130 -59 22 -167 26 -218 8z"/>
<path d="M6310 3160 c-68 -15 -140 -54 -189 -104 l-44 -44 72 -47 72 -46 28
30 c36 39 73 52 139 52 78 0 122 -35 135 -107 l6 -31 -122 -6 c-182 -9 -272
-43 -327 -124 -22 -32 -25 -47 -25 -123 0 -77 3 -91 27 -128 41 -61 104 -94
194 -100 88 -6 153 9 212 49 51 34 52 35 52 10 0 -44 6 -46 101 -43 l90 3 -3
287 c-3 274 -4 289 -25 328 -29 54 -93 109 -152 129 -56 20 -180 27 -241 15z
m217 -482 c-11 -84 -68 -131 -167 -136 -63 -4 -71 -2 -94 21 -31 31 -33 65 -5
101 27 34 96 54 193 55 l79 1 -6 -42z"/>
<path d="M7487 3160 c-236 -59 -356 -326 -252 -558 34 -75 112 -152 192 -190
52 -24 70 -27 163 -27 133 1 195 23 278 100 208 192 158 529 -96 648 -57 27
-80 32 -157 34 -49 1 -107 -2 -128 -7z m215 -196 c55 -39 82 -93 86 -177 6
-92 -28 -165 -96 -204 -135 -80 -295 24 -295 192 0 68 26 137 66 173 63 59
169 65 239 16z"/>
<path d="M8429 3155 c-30 -9 -60 -29 -82 -54 l-35 -39 -7 49 -7 49 -89 0 -89
0 0 -380 0 -380 99 0 100 0 3 223 c3 247 9 269 71 307 35 22 134 28 167 10 17
-9 18 -2 25 101 4 60 4 113 1 116 -13 13 -113 12 -157 -2z"/>
<path d="M2790 2877 c0 -313 4 -341 61 -410 51 -62 100 -82 199 -82 102 0 174
27 222 84 l30 36 -6 -52 -7 -53 101 0 100 0 0 380 0 380 -100 0 -100 0 0 -217
c0 -124 -5 -235 -11 -256 -6 -22 -25 -55 -43 -75 -30 -32 -39 -36 -94 -40 -71
-5 -101 9 -132 61 -18 29 -20 52 -20 280 l0 247 -100 0 -100 0 0 -283z"/>
<path d="M8663 3148 c3 -7 72 -177 152 -377 145 -360 147 -365 135 -405 -7
-22 -30 -58 -51 -79 -38 -38 -41 -39 -98 -35 l-58 4 -13 -65 c-6 -37 -14 -76
-17 -87 -6 -28 37 -44 117 -44 114 0 208 58 261 162 12 23 98 243 190 488
l168 445 -91 3 c-50 1 -95 -1 -99 -5 -4 -4 -47 -111 -94 -238 -48 -126 -91
-234 -95 -238 -3 -4 -49 102 -102 235 l-94 243 -108 3 c-85 2 -107 0 -103 -10z"/>
</g>
</svg>
